# xmcd
#
# Track frame offsets:
#	150
#	15452
#	28105
#	45335
#	60218
#	75234
#	90996
#	104057
#	120866
#	138980
#	155947
#	171345
#	187162
#	203654
#	221940
#	236938
#	255661
#	269274
#	285167
#
# Disc length: 3972 seconds
#
# Revision: 0
# Processed by: cddbd v1.5.2PL0 Copyright (c) Steve Scherf et al.
# Submitted via: audiograbber 1.83.01
#
DISCID=020f8213
DTITLE=Variolus - Hott Country 193
DYEAR=2012
DGENRE=Country
TTITLE0=Carrie Underwood - Good Girl
TTITLE1=One More Girl - Maybe
TTITLE2=Marlee Scott Feat Vince Gill - Train Wreck
TTITLE3=Easton Corbin - Lovin' You Is Fun
TTITLE4=Chad Brownlee - Smoke In The Rain
TTITLE5=Lindsay Broughton - Holdin' On To You
TTITLE6=Shane Chisolm - No One Came
TTITLE7=Eric Church - Springsteen
TTITLE8=Alison Kraus and Union Station - My Love Follows Where You Go
TTITLE9=Canaan Smith - We Got Us
TTITLE10=Orchard - Stick To Youir Guns
TTITLE11=Luke Bryan - Drunk On You
TTITLE12=Jimmy Rankin - Hurtin' Part
TTITLE13=Sean Hogan - Like We Never Had To Say Goodbye
TTITLE14=Craig Morgan - This Ole Boy
TTITLE15=Celtic Thunder - Friends In Low Places
TTITLE16=Donny Parenteau - Fiddleback ( Churko Remix )
TTITLE17=Gord Bamford - Must Be A Woman
TTITLE18=Tyler Farr - Hot Mess
EXTD=March 2012
EXTT0=
EXTT1=
EXTT2=
EXTT3=
EXTT4=
EXTT5=
EXTT6=
EXTT7=
EXTT8=
EXTT9=
EXTT10=
EXTT11=
EXTT12=
EXTT13=
EXTT14=
EXTT15=
EXTT16=
EXTT17=
EXTT18=
PLAYORDER=
